<?xml version="1.0" encoding="UTF-8" standalone="no"?><!-- Generator: Gravit.io --><svg xmlns="http://www.w3.org/2000/svg" xmlns:xlink="http://www.w3.org/1999/xlink" style="isolation:isolate" viewBox="0 0 512 512" width="512pt" height="512pt"><defs><clipPath id="_clipPath_HzlEh8kqzZV5MIh0ryzwu4QT6HWXo9RD"><rect width="512" height="512"/></clipPath></defs><g clip-path="url(#_clipPath_HzlEh8kqzZV5MIh0ryzwu4QT6HWXo9RD)"><g><g><path d=" M 256 0 C 114.51 0 0 114.497 0 256 C 0 397.49 114.497 512 256 512 C 397.49 512 512 397.503 512 256 C 512 114.51 397.503 0 256 0 Z  M 256 477.867 C 133.663 477.867 34.133 378.338 34.133 256 C 34.133 133.662 133.663 34.133 256 34.133 C 378.337 34.133 477.867 133.663 477.867 256 C 477.867 378.337 378.337 477.867 256 477.867 Z " fill="rgb(255,255,255)"/></g></g><g><g><path d=" M 255.997 209.777 C 246.572 209.777 238.93 217.418 238.93 226.844 L 238.93 370.813 C 238.93 380.238 246.571 387.88 255.997 387.88 C 265.423 387.88 273.064 380.239 273.064 370.813 L 273.064 226.843 C 273.063 217.417 265.422 209.777 255.997 209.777 Z " fill="rgb(255,255,255)"/></g></g><g><g><path d=" M 256 124.122 C 237.179 124.122 221.867 139.434 221.867 158.255 C 221.867 177.076 237.179 192.388 256 192.388 C 274.821 192.388 290.133 177.076 290.133 158.255 C 290.133 139.434 274.821 124.122 256 124.122 Z " fill="rgb(255,255,255)"/></g></g></g></svg>