<?xml version="1.0" encoding="UTF-8" standalone="no"?><!-- Generator: Gravit.io --><svg xmlns="http://www.w3.org/2000/svg" xmlns:xlink="http://www.w3.org/1999/xlink" style="isolation:isolate" viewBox="0 0 384 384" width="384pt" height="384pt"><defs><clipPath id="_clipPath_0PQ1heHbkgbYvd72Fci5VdelJqYgFbfc"><rect width="384" height="384"/></clipPath></defs><g clip-path="url(#_clipPath_0PQ1heHbkgbYvd72Fci5VdelJqYgFbfc)"><g><g><path d=" M 353.188 252.052 C 329.678 252.052 306.594 248.375 284.719 241.146 C 274 237.49 260.823 240.844 254.281 247.563 L 211.104 280.157 C 161.031 253.428 130.187 222.594 103.823 172.897 L 135.458 130.845 C 143.677 122.637 146.625 110.647 143.093 99.397 C 135.833 77.407 132.145 54.334 132.145 30.814 C 132.146 13.823 118.323 0 101.333 0 L 30.813 0 C 13.823 0 0 13.823 0 30.813 C 0 225.563 158.438 384 353.188 384 C 370.178 384 384.001 370.177 384.001 353.187 L 384.001 282.864 C 384 265.875 370.177 252.052 353.188 252.052 Z " fill="rgb(255,255,255)"/></g></g></g></svg>