<?xml version="1.0" encoding="UTF-8" standalone="no"?><!-- Generator: Gravit.io --><svg xmlns="http://www.w3.org/2000/svg" xmlns:xlink="http://www.w3.org/1999/xlink" style="isolation:isolate" viewBox="0 0 512 512" width="512pt" height="512pt"><defs><clipPath id="_clipPath_CdQx6g1sjF3WycZuukpTUlZ7cbFBrYsf"><rect width="512" height="512"/></clipPath></defs><g clip-path="url(#_clipPath_CdQx6g1sjF3WycZuukpTUlZ7cbFBrYsf)"><path d=" M 500.879 289.165 C 493.159 287.095 484.727 291.491 482.508 299.771 L 482.161 301.067 L 447.453 291.767 C 449.615 280.168 450.757 268.215 450.757 255.999 C 450.757 243.782 449.614 231.828 447.452 220.228 L 482.16 210.928 L 482.507 212.224 C 484.726 220.505 493.159 224.9 500.878 222.83 C 508.88 220.686 513.629 212.461 511.484 204.459 L 503.025 172.89 C 500.88 164.888 492.66 160.138 484.654 162.284 C 476.652 164.428 471.904 172.653 474.048 180.655 L 474.395 181.951 L 439.677 191.254 C 431.587 168.372 419.342 147.439 403.843 129.37 L 429.324 103.889 L 430.273 104.838 C 436.129 110.695 445.628 110.697 451.486 104.838 C 457.344 98.98 457.344 89.483 451.486 83.625 L 428.376 60.515 C 422.519 54.657 413.021 54.657 407.163 60.515 C 401.305 66.373 401.305 75.87 407.163 81.728 L 408.112 82.677 L 382.631 108.157 C 364.56 92.657 343.626 80.411 320.743 72.322 L 330.045 37.606 L 331.341 37.953 C 339.655 40.181 347.655 35.025 349.712 27.347 C 351.856 19.345 347.108 11.12 339.106 8.976 L 307.537 0.517 C 299.534 -1.628 291.309 3.122 289.166 11.123 C 287.022 19.125 291.77 27.35 299.772 29.494 L 301.068 29.841 L 291.768 64.549 C 280.169 62.387 268.216 61.245 256 61.245 C 243.784 61.245 231.831 62.387 220.232 64.549 L 210.932 29.841 L 212.228 29.494 C 220.23 27.35 224.978 19.125 222.834 11.123 C 220.691 3.12 212.466 -1.63 204.464 0.515 L 172.895 8.974 C 164.893 11.118 160.145 19.343 162.289 27.345 C 164.346 35.024 172.346 40.18 180.66 37.951 L 181.956 37.604 L 191.258 72.32 C 168.375 80.41 147.441 92.655 129.37 108.155 L 103.889 82.675 L 104.838 81.726 C 110.696 75.868 110.696 66.371 104.838 60.513 C 98.981 54.655 89.483 54.655 83.625 60.513 L 60.515 83.623 C 54.657 89.481 54.657 98.978 60.515 104.836 C 66.373 110.695 75.872 110.693 81.728 104.836 L 82.677 103.887 L 108.158 129.368 C 92.659 147.438 80.414 168.371 72.324 191.252 L 37.606 181.949 L 37.953 180.653 C 40.097 172.651 35.349 164.426 27.347 162.282 C 19.341 160.136 11.12 164.886 8.976 172.888 L 0.515 204.46 C -1.629 212.462 3.119 220.687 11.121 222.831 C 18.841 224.901 27.273 220.505 29.492 212.225 L 29.839 210.929 L 64.547 220.229 C 62.385 231.829 61.242 243.783 61.242 256 C 61.242 268.216 62.384 280.169 64.546 291.768 L 29.838 301.068 L 29.491 299.772 C 27.272 291.491 18.839 287.096 11.12 289.166 C 3.118 291.31 -1.63 299.535 0.514 307.537 L 8.973 339.106 C 11.118 347.108 19.338 351.858 27.344 349.712 C 35.346 347.568 40.094 339.343 37.95 331.341 L 37.603 330.045 L 72.319 320.743 C 80.409 343.626 92.654 364.56 108.154 382.631 L 82.673 408.112 L 81.724 407.163 C 75.868 401.306 66.369 401.304 60.511 407.163 C 54.653 413.021 54.653 422.518 60.511 428.376 L 83.621 451.486 C 89.478 457.344 98.976 457.344 104.834 451.486 C 110.692 445.628 110.692 436.131 104.834 430.273 L 103.885 429.324 L 129.366 403.844 C 147.437 419.344 168.371 431.59 191.254 439.679 L 181.952 474.395 L 180.656 474.048 C 172.342 471.82 164.342 476.976 162.285 484.654 C 160.141 492.656 164.889 500.881 172.891 503.025 L 204.46 511.484 C 212.463 513.629 220.688 508.879 222.831 500.878 C 224.975 492.876 220.227 484.651 212.225 482.507 L 210.929 482.16 L 220.229 447.452 C 231.828 449.614 243.781 450.756 255.997 450.756 C 268.213 450.756 280.166 449.614 291.765 447.452 L 301.065 482.16 L 299.769 482.507 C 291.767 484.651 287.019 492.876 289.163 500.878 C 291.307 508.879 299.531 513.629 307.534 511.484 L 339.103 503.025 C 347.105 500.881 351.853 492.656 349.709 484.654 C 347.652 476.975 339.652 471.819 331.338 474.048 L 330.042 474.395 L 320.74 439.679 C 343.623 431.589 364.557 419.344 382.628 403.844 L 408.109 429.324 L 407.16 430.273 C 401.302 436.131 401.302 445.628 407.16 451.486 C 413.017 457.344 422.515 457.344 428.373 451.486 L 451.483 428.376 C 457.341 422.518 457.341 413.021 451.483 407.163 C 445.625 401.304 436.126 401.306 430.27 407.163 L 429.321 408.112 L 403.84 382.631 C 419.34 364.56 431.586 343.626 439.675 320.743 L 474.391 330.045 L 474.044 331.341 C 471.9 339.343 476.648 347.568 484.65 349.712 C 492.656 351.858 500.877 347.108 503.021 339.106 L 511.48 307.537 C 513.629 299.534 508.881 291.309 500.879 289.165 L 500.879 289.165 Z  M 256 420.757 C 165.153 420.757 91.243 346.847 91.243 256 C 91.243 165.153 165.153 91.243 256 91.243 C 346.847 91.243 420.757 165.153 420.757 256 C 420.757 346.847 346.847 420.757 256 420.757 Z " fill="rgb(255,255,255)"/><circle vector-effect="non-scaling-stroke" cx="256" cy="143.533" r="15" fill="rgb(255,255,255)"/><circle vector-effect="non-scaling-stroke" cx="256" cy="368.467" r="15" fill="rgb(255,255,255)"/><circle vector-effect="non-scaling-stroke" cx="223.867" cy="288.133" r="15" fill="rgb(255,255,255)"/><circle vector-effect="non-scaling-stroke" cx="288.133" cy="288.133" r="15" fill="rgb(255,255,255)"/><circle vector-effect="non-scaling-stroke" cx="288.133" cy="223.867" r="15" fill="rgb(255,255,255)"/><circle vector-effect="non-scaling-stroke" cx="223.867" cy="223.867" r="15" fill="rgb(255,255,255)"/><circle vector-effect="non-scaling-stroke" cx="368.467" cy="256" r="15" fill="rgb(255,255,255)"/><circle vector-effect="non-scaling-stroke" cx="143.533" cy="256" r="15" fill="rgb(255,255,255)"/><circle vector-effect="non-scaling-stroke" cx="335.526" cy="176.478" r="15" fill="rgb(255,255,255)"/><circle vector-effect="non-scaling-stroke" cx="176.474" cy="335.53" r="15" fill="rgb(255,255,255)"/><circle vector-effect="non-scaling-stroke" cx="335.526" cy="335.53" r="15" fill="rgb(255,255,255)"/><circle vector-effect="non-scaling-stroke" cx="176.474" cy="176.478" r="15" fill="rgb(255,255,255)"/></g></svg>